<svg width="1024" height="1024" viewBox="0 0 1024 1024" xmlns="http://www.w3.org/2000/svg">
  <defs>
    <linearGradient id="graphite" x1="0" y1="0" x2="0" y2="1">
      <stop offset="0" stop-color="#2A2F3A"/>
      <stop offset="1" stop-color="#0E1116"/>
    </linearGradient>
    <linearGradient id="lime" x1="0" y1="0" x2="1" y2="1">
      <stop offset="0" stop-color="#EAFF8C"/>
      <stop offset="0.5" stop-color="#C6FF00"/>
      <stop offset="1" stop-color="#9BE000"/>
    </linearGradient>
    <radialGradient id="glow" cx="0.32" cy="0.2" r="0.7">
      <stop offset="0" stop-color="#FFFFFF" stop-opacity="0.18"/>
      <stop offset="0.6" stop-color="#FFFFFF" stop-opacity="0"/>
    </radialGradient>
    <filter id="ds" x="-40%" y="-40%" width="180%" height="180%">
      <feDropShadow dx="0" dy="16" stdDev="22" flood-color="#000000" flood-opacity="0.45"/>
    </filter>
  </defs>

  <!-- graphite squircle tile -->
  <rect width="1024" height="1024" rx="232" fill="url(#graphite)"/>
  <rect width="1024" height="1024" rx="232" fill="url(#glow)"/>

  <!-- lime shield + dark wildcard asterisk -->
  <g filter="url(#ds)">
    <path d="M322 248 L702 248 Q744 248 744 290 L744 474
             C744 624 662 724 512 802 C362 724 280 624 280 474 L280 290
             Q280 248 322 248 Z" fill="url(#lime)"/>
    <g transform="translate(512 512) scale(1.05)" fill="#11140C">
      <rect x="-26" y="-104" width="52" height="208" rx="26"/>
      <rect x="-26" y="-104" width="52" height="208" rx="26" transform="rotate(60)"/>
      <rect x="-26" y="-104" width="52" height="208" rx="26" transform="rotate(120)"/>
      <circle r="30"/>
    </g>
  </g>
</svg>
